<?xml version="1.0" standalone="no"?>
<!DOCTYPE svg PUBLIC "-//W3C//DTD SVG 20010904//EN"
 "http://www.w3.org/TR/2001/REC-SVG-20010904/DTD/svg10.dtd">
<svg version="1.0" xmlns="http://www.w3.org/2000/svg"
 width="777.000000pt" height="777.000000pt" viewBox="0 0 777.000000 777.000000"
 preserveAspectRatio="xMidYMid meet">
<metadata>
Created by potrace 1.11, written by Peter Selinger 2001-2013
</metadata>
<g transform="translate(0.000000,777.000000) scale(0.100000,-0.100000)"
fill="#000000" stroke="none">
<path d="M3730 7764 c-25 -2 -103 -9 -175 -14 -689 -57 -1373 -321 -1939 -749
-501 -377 -921 -900 -1181 -1469 -128 -281 -225 -579 -283 -872 -115 -581
-102 -1149 39 -1721 223 -908 757 -1695 1519 -2239 492 -352 1094 -587 1700
-664 63 -9 197 -20 296 -27 194 -12 420 -3 654 27 1003 128 1924 664 2542
1480 606 801 886 1828 767 2824 -126 1064 -674 2027 -1515 2661 -555 420
-1202 674 -1893 744 -147 15 -450 26 -531 19z m-292 -1131 l-3 -98 -657 -3
-658 -2 0 -700 0 -700 -95 0 -95 0 0 800 0 800 755 0 756 0 -3 -97z m2352
-703 l0 -800 -95 0 -95 0 0 700 0 700 -657 2 -658 3 -3 98 -3 97 756 0 755 0
0 -800z m-1188 -247 l208 -158 0 -262 0 -263 -370 0 -370 0 0 -225 0 -225 128
0 127 -1 212 -162 213 -162 0 -272 0 -273 -340 0 -340 0 -2 -732 -3 -733 -360
-2 -360 -3 -177 151 -178 152 0 1663 0 1664 702 0 702 0 208 -157z m-2462
-3593 l0 -660 663 -2 662 -3 3 -92 3 -93 -761 0 -760 0 0 755 0 755 95 0 95 0
0 -660z m3648 -97 l2 -753 -760 0 -760 0 0 95 0 95 660 0 660 0 0 653 c0 360
3 657 7 661 4 4 48 5 98 4 l90 -3 3 -752z"/>
<path d="M3082 4163 l3 -1598 263 -3 262 -2 0 745 0 745 330 0 330 0 0 215 0
215 -330 0 -330 0 0 440 0 440 363 2 362 3 3 198 2 197 -630 0 -630 0 2 -1597z"/>
</g>
</svg>
