<?xml version="1.0" encoding="UTF-8" standalone="no"?>
<svg
   xmlns:dc="http://purl.org/dc/elements/1.1/"
   xmlns:cc="http://creativecommons.org/ns#"
   xmlns:rdf="http://www.w3.org/1999/02/22-rdf-syntax-ns#"
   xmlns:svg="http://www.w3.org/2000/svg"
   xmlns="http://www.w3.org/2000/svg"
   xmlns:sodipodi="http://sodipodi.sourceforge.net/DTD/sodipodi-0.dtd"
   xmlns:inkscape="http://www.inkscape.org/namespaces/inkscape"
   width="80.216522mm"
   height="39.714264mm"
   viewBox="0 0 80.216522 39.714264"
   version="1.1"
   id="svg4643"
   sodipodi:docname="FLIX.svg"
   inkscape:version="0.92.4 (5da689c313, 2019-01-14)">
  <metadata
     id="metadata13">
    <rdf:RDF>
      <cc:Work
         rdf:about="">
        <dc:format>image/svg+xml</dc:format>
        <dc:type
           rdf:resource="http://purl.org/dc/dcmitype/StillImage" />
      </cc:Work>
    </rdf:RDF>
  </metadata>
  <defs
     id="defs11" />
  <sodipodi:namedview
     pagecolor="#ffffff"
     bordercolor="#666666"
     borderopacity="1"
     objecttolerance="10"
     gridtolerance="10"
     guidetolerance="10"
     inkscape:pageopacity="0"
     inkscape:pageshadow="2"
     inkscape:window-width="1920"
     inkscape:window-height="1017"
     id="namedview9"
     showgrid="false"
     inkscape:zoom="1.0788716"
     inkscape:cx="131.61899"
     inkscape:cy="76.277146"
     inkscape:window-x="-8"
     inkscape:window-y="-8"
     inkscape:window-maximized="1"
     inkscape:current-layer="text5190" />
  <g
     id="layer1"
     transform="translate(120.43833,-79.530038)">
    <g
       aria-label="FLIX"
       style="font-style:normal;font-weight:normal;font-size:10.58333302px;line-height:1.25;font-family:sans-serif;letter-spacing:0px;word-spacing:0px;fill:#000000;fill-opacity:1;stroke:none;stroke-width:0.26458332"
       id="text5190">
      <path
         d="m -103.77593,88.572438 h -6.8072 v 4.8768 h 2.3876 l 3.8608,3.4544 v 5.842002 h -6.2484 v 15.8496 h -6.5532 l -3.302,-3.302 V 79.530038 h 12.8524 l 3.81,3.4036 z m -4.318,-3.9116 v -4.318 h -11.4808 v 34.442402 h 4.826 V 98.834038 h 6.096 v -4.6736 h -6.096 v -9.4996 z"
         style="font-style:normal;font-variant:normal;font-weight:normal;font-stretch:normal;font-size:50.79999924px;font-family:ShadowW90-Gothic;-inkscape-font-specification:ShadowW90-Gothic;fill:#ff5252;fill-opacity:1;stroke-width:0.26458332"
         id="path5200"
         inkscape:connector-curvature="0" />
      <path
         d="m -85.517298,118.59524 h -13.5128 l -3.251202,-3.302 V 79.530038 h 6.248402 l 3.81,3.4544 v 25.908002 h 2.8448 l 3.8608,3.4544 z m -4.318,-3.81 v -5.08 h -6.7056 V 80.342838 h -4.876802 v 34.442402 z"
         style="font-style:normal;font-variant:normal;font-weight:normal;font-stretch:normal;font-size:50.79999924px;font-family:ShadowW90-Gothic;-inkscape-font-specification:ShadowW90-Gothic;fill:#ff5252;fill-opacity:1;stroke-width:0.26458332"
         id="path5202"
         inkscape:connector-curvature="0" />
      <path
         d="m -74.368285,118.59524 h -6.604 l -3.2512,-3.302 V 79.530038 h 6.4008 l 3.4544,3.4036 z m -4.1656,-3.81 V 80.342838 h -4.826 v 34.442402 z"
         style="font-style:normal;font-variant:normal;font-weight:normal;font-stretch:normal;font-size:50.79999924px;font-family:ShadowW90-Gothic;-inkscape-font-specification:ShadowW90-Gothic;fill:#ff5252;fill-opacity:1;stroke-width:0.26458332"
         id="path5204"
         inkscape:connector-curvature="0" />
      <path
         d="m -50.789941,118.59524 h -7.6708 l -2.8448,-3.302 -0.6096,-1.8796 -1.27,5.1816 h -6.8072 l -3.6068,-3.302 6.1976,-17.983202 -5.6896,-17.78 h 7.2136 l 3.4036,3.1496 0.7112,-3.1496 h 6.6548 l 3.556,3.556 -5.6896,16.51 z m -4.2672,-3.81 -6.4008,-18.135602 5.588,-16.3068 h -5.2832 l -2.6416,11.0744 -2.8956,-11.0744 h -5.2832 l 5.4864,16.9164 -5.9944,17.526002 h 5.3848 l 2.8956,-13.2588 3.7084,13.2588 z"
         style="font-style:normal;font-variant:normal;font-weight:normal;font-stretch:normal;font-size:50.79999924px;font-family:ShadowW90-Gothic;-inkscape-font-specification:ShadowW90-Gothic;fill:#ff5252;fill-opacity:1;stroke-width:0.26458332"
         id="path5206"
         inkscape:connector-curvature="0" />
      <path
         inkscape:connector-curvature="0"
         d="m -40.221808,118.50857 h -6.604 l -3.2512,-3.302 V 79.443375 h 6.4008 l 3.4544,3.4036 z m -4.1656,-3.81 V 80.256175 h -4.826 v 34.442395 z"
         style="font-style:normal;font-variant:normal;font-weight:normal;font-stretch:normal;font-size:50.79999924px;line-height:1.25;font-family:ShadowW90-Gothic;-inkscape-font-specification:ShadowW90-Gothic;letter-spacing:0px;word-spacing:0px;fill:#ff5252;fill-opacity:1;stroke:none;stroke-width:0.26458332"
         id="path5204-5" />
    </g>
  </g>
</svg>
