<?xml version="1.0" encoding="UTF-8" standalone="no"?>
<!-- Generator: Adobe Illustrator 19.0.0, SVG Export Plug-In . SVG Version: 6.00 Build 0)  -->

<svg
   xmlns:dc="http://purl.org/dc/elements/1.1/"
   xmlns:cc="http://creativecommons.org/ns#"
   xmlns:rdf="http://www.w3.org/1999/02/22-rdf-syntax-ns#"
   xmlns:svg="http://www.w3.org/2000/svg"
   xmlns="http://www.w3.org/2000/svg"
   xmlns:sodipodi="http://sodipodi.sourceforge.net/DTD/sodipodi-0.dtd"
   xmlns:inkscape="http://www.inkscape.org/namespaces/inkscape"
   version="1.1"
   id="Capa_1"
   x="0px"
   y="0px"
   viewBox="0 0 92 138"
   xml:space="preserve"
   sodipodi:docname="user.svg"
   inkscape:version="0.92.4 (5da689c313, 2019-01-14)"
   width="92"
   height="138"><metadata
   id="metadata39"><rdf:RDF><cc:Work
       rdf:about=""><dc:format>image/svg+xml</dc:format><dc:type
         rdf:resource="http://purl.org/dc/dcmitype/StillImage" /></cc:Work></rdf:RDF></metadata><defs
   id="defs37" /><sodipodi:namedview
   pagecolor="#ffffff"
   bordercolor="#666666"
   borderopacity="1"
   objecttolerance="10"
   gridtolerance="10"
   guidetolerance="10"
   inkscape:pageopacity="0"
   inkscape:pageshadow="2"
   inkscape:window-width="1920"
   inkscape:window-height="1017"
   id="namedview35"
   showgrid="false"
   inkscape:zoom="2.1454545"
   inkscape:cx="66.560415"
   inkscape:cy="85.497595"
   inkscape:window-x="-8"
   inkscape:window-y="-8"
   inkscape:window-maximized="1"
   inkscape:current-layer="Capa_1" />
<path
   d="M 154,115.5 C 154,51.8154 119.4564,0 77,0 34.5436,0 0,51.8154 0,115.5 c 0,33.6378 9.6432,63.9576 24.9928,85.0836 l -0.0728,0.0966 2.4976,3.1584 c 0.1624,0.2058 0.3388,0.3738 0.5012,0.5754 1.3272,1.6506 2.702,3.2172 4.102,4.7334 0.4536,0.4914 0.9072,0.9828 1.3692,1.4616 1.4952,1.5456 3.0296,3.0114 4.5976,4.4016 0.3416,0.3024 0.686,0.5964 1.0304,0.8904 1.7164,1.4658 3.4692,2.8476 5.264,4.116 0.1316,0.0924 0.266,0.1764 0.3976,0.2688 5.8492,4.0782 12.0932,7.0728 18.6228,8.841 0.1708,0.0462 0.3416,0.0924 0.5152,0.1386 2.0272,0.525 4.0768,0.945 6.1516,1.2264 0.252,0.0336 0.504,0.0546 0.7588,0.0882 2.0664,0.2562 4.1552,0.42 6.272,0.42 2.0972,0 4.1664,-0.1638 6.2216,-0.4116 0.2604,-0.0336 0.5208,-0.0546 0.7812,-0.0882 2.058,-0.2814 4.0908,-0.6888 6.0984,-1.2054 0.1736,-0.0462 0.35,-0.0924 0.5236,-0.1428 6.4316,-1.7304 12.586,-4.6578 18.3596,-8.631 0.2128,-0.147 0.4284,-0.2856 0.6412,-0.4368 1.7276,-1.218 3.416,-2.5326 5.0708,-3.9312 0.4116,-0.3486 0.8204,-0.7014 1.2292,-1.0626 1.5064,-1.3314 2.9876,-2.7216 4.4268,-4.2 0.518,-0.5292 1.0248,-1.0878 1.5372,-1.6422 1.2292,-1.3272 2.436,-2.6964 3.6092,-4.1286 0.2604,-0.315 0.5404,-0.588 0.7952,-0.9114 l 2.562,-3.2088 -0.0756,-0.0966 C 144.2644,179.7684 154,149.31 154,115.5 Z m -148.4,0 C 5.6,56.4438 37.6292,20.518644 77,20.518644 c 39.3708,0 71.4,35.925156 71.4,94.981356 0,31.8234 -9.31,60.4338 -24.0492,80.0646 -0.8232,-0.8526 -1.652,-1.617 -2.5004,-2.2554 L 98.1428,175.5306 c -2.128,-1.596 -3.4496,-4.8048 -3.4496,-8.3706 v -12.4194 c 0.5488,-1.0164 1.1284,-2.1672 1.7276,-3.4314 3.0688,-6.5016 5.53,-13.734 7.3248,-21.5166 3.5476,-2.5284 5.838,-7.8288 5.838,-13.8138 v -14.889 c 0,-3.6414 -0.8904,-7.1736 -2.4836,-9.9498 V 71.5386 C 107.2456,69.3588 107.7608,57.057 101.8276,46.9098 96.6672,38.073 88.3148,33.6 77,33.6 65.6852,33.6 57.3328,38.073 52.1724,46.9056 46.2392,57.0528 46.7544,69.3546 46.9,71.5344 v 19.6014 c -1.5904,2.7762 -2.4836,6.3084 -2.4836,9.9498 v 14.889 c 0,4.6242 1.3832,8.9376 3.752,11.8482 2.268,13.3266 6.9356,23.415 8.6604,26.8338 v 12.1548 c 0,3.4272 -1.246,6.5772 -3.2536,8.2236 L 31.4356,193.1496 C 30.73,193.725 30.03,194.397 29.33,195.1488 14.7728,175.5264 5.6,147.0924 5.6,115.5 Z m 113.2852,86.6544 c -0.98,1.0668 -1.9768,2.1 -2.9876,3.087 -0.4648,0.4536 -0.9268,0.9072 -1.4,1.3482 -1.3216,1.2264 -2.6656,2.394 -4.0376,3.486 -0.3024,0.2394 -0.6076,0.4662 -0.9128,0.7014 -3.1528,2.4234 -6.4148,4.5066 -9.7664,6.1992 -0.1176,0.0588 -0.2352,0.1218 -0.3556,0.1806 -1.7556,0.8736 -3.5336,1.6506 -5.3312,2.3184 -0.0056,0 -0.0112,0.004 -0.0168,0.004 -1.8144,0.672 -3.6512,1.2306 -5.4992,1.6884 -0.0504,0.0126 -0.1008,0.0294 -0.1512,0.042 -1.7388,0.4242 -3.4916,0.7308 -5.25,0.9618 -0.3108,0.042 -0.6216,0.0714 -0.9352,0.105 -1.7388,0.1976 -4.418203,-55.6086 -6.173803,-55.6086 -1.7752,0 -2.612597,55.802 -4.373797,55.6046 -0.3052,-0.0336 -0.6104,-0.063 -0.9128,-0.105 -1.7752,-0.2352 -3.542,-0.5502 -5.292,-0.9786 l -0.2352,-0.063 c -3.7016,-0.9282 -7.3444,-2.2932 -10.892,-4.0782 -0.1092,-0.0546 -0.2212,-0.1134 -0.3304,-0.168 -1.7612,-0.8988 -3.5028,-1.8942 -5.2136,-2.9946 -0.0112,-0.008 -0.0252,-0.0168 -0.0364,-0.0252 -1.6184,-1.0458 -3.206,-2.205 -4.774,-3.4272 -0.2044,-0.1596 -0.4116,-0.3108 -0.6132,-0.4746 -1.4308,-1.1466 -2.8308,-2.3856 -4.2112,-3.6792 -0.4088,-0.3864 -0.8148,-0.777 -1.218,-1.1718 -1.2712,-1.2474 -2.5256,-2.5452 -3.7464,-3.9186 -0.126,-0.1428 -0.2464,-0.294 -0.3724,-0.4368 l 0.2688,-0.2268 22.1396,-18.1146 c 3.808,-3.1164 6.174,-9.093 6.174,-15.5988 L 62.426,151.683 61.782,150.5154 c -0.0616,-0.105 -6.1152,-11.151 -8.4028,-26.1072 l -0.2548,-1.6632 -0.9548,-0.9282 c -1.3468,-1.3062 -2.1532,-3.4902 -2.1532,-5.8464 v -14.889 c 0,-1.953 0.5516,-3.7716 1.5596,-5.1366 L 52.5,94.6932 V 71.2992 L 52.4748,70.749 C 52.4664,70.6482 51.6404,60.5472 56.3836,52.437 60.4324,45.5154 67.3708,42 77,42 c 9.5928,0 16.5088,3.486 20.5688,10.3572 4.7376,8.0262 3.962,18.3162 3.9564,18.4002 l -0.0252,23.9442 0.924,1.2516 c 1.0052,1.3608 1.5596,3.1836 1.5596,5.1366 v 14.889 c 0,2.9946 -1.358,5.712 -3.3068,6.615 l -1.3916,0.6426 -0.448,2.079 c -1.652,7.6986 -4.004,14.8092 -6.9888,21.1344 -0.7336,1.554 -1.4476,2.9316 -2.0608,3.9858 l -0.6944,1.1886 V 167.16 c 0,6.7704 2.5088,12.8604 6.5464,15.8844 l 23.7076,17.7786 c 0.1512,0.1134 0.2996,0.231 0.448,0.3486 -0.2996,0.3402 -0.6076,0.6552 -0.91,0.9828 z"
   id="path2"
   style="fill:#ff5252;fill-opacity:1;stroke-width:3.42928553"
   inkscape:connector-curvature="0"
   sodipodi:nodetypes="sssccccccccccccccsccccccccccccccsssscccscccsscccscccssccscccscccccccccccccsccccccccccccccccccccccsscccccsccccssccccccscccc" />
<g
   id="g4"
   transform="translate(0,176)">
</g>
<g
   id="g6"
   transform="translate(0,176)">
</g>
<g
   id="g8"
   transform="translate(0,176)">
</g>
<g
   id="g10"
   transform="translate(0,176)">
</g>
<g
   id="g12"
   transform="translate(0,176)">
</g>
<g
   id="g14"
   transform="translate(0,176)">
</g>
<g
   id="g16"
   transform="translate(0,176)">
</g>
<g
   id="g18"
   transform="translate(0,176)">
</g>
<g
   id="g20"
   transform="translate(0,176)">
</g>
<g
   id="g22"
   transform="translate(0,176)">
</g>
<g
   id="g24"
   transform="translate(0,176)">
</g>
<g
   id="g26"
   transform="translate(0,176)">
</g>
<g
   id="g28"
   transform="translate(0,176)">
</g>
<g
   id="g30"
   transform="translate(0,176)">
</g>
<g
   id="g32"
   transform="translate(0,176)">
</g>
</svg>